<svg xmlns="http://www.w3.org/2000/svg" viewBox="0 0 400 300">
  <!-- Background matrix effect -->
  <defs>
    <linearGradient id="matrixBg" x1="0%" y1="0%" x2="100%" y2="100%">
      <stop offset="0%" style="stop-color:#000000;stop-opacity:1" />
      <stop offset="100%" style="stop-color:#001100;stop-opacity:1" />
    </linearGradient>
    
    <!-- Glitch filter -->
    <filter id="glitch">
      <feColorMatrix type="matrix" values="1 0 0 0 0  0 1 0 0 0  0 0 1 0 0  0 0 0 1 0"/>
      <feOffset dx="3" dy="-3"/>
      <feColorMatrix type="matrix" values="0 0 0 0 0  0 0 1 0 0  0 1 0 0 0  0 0 0 1 0"/>
      <feOffset dx="-3" dy="3"/>
    </filter>
    
    <!-- Shine effect -->
    <linearGradient id="shine" x1="0%" y1="0%" x2="100%" y2="100%">
      <stop offset="0%" style="stop-color:#ffffff;stop-opacity:0.1"/>
      <stop offset="50%" style="stop-color:#00ff00;stop-opacity:0.3"/>
      <stop offset="100%" style="stop-color:#ffffff;stop-opacity:0.1"/>
    </linearGradient>
  </defs>

  <!-- Background -->
  <rect width="400" height="300" fill="url(#matrixBg)"/>

  <!-- Matrix rain effect (static representation) -->
  <g opacity="0.2">
    <text x="30" y="50" fill="#00ff00" font-family="monospace">10110</text>
    <text x="180" y="80" fill="#00ff00" font-family="monospace">01001</text>
    <text x="290" y="120" fill="#00ff00" font-family="monospace">11010</text>
    <text x="70" y="150" fill="#00ff00" font-family="monospace">00101</text>
    <text x="220" y="200" fill="#00ff00" font-family="monospace">10011</text>
  </g>

  <!-- Main "K" letter - Bold white base -->
  <g transform="translate(60,40)">
    <path d="M20,20 L20,180 M20,100 L120,20 M20,100 L120,180" 
          stroke="#ffffff" 
          stroke-width="30" 
          fill="none"
          filter="url(#glitch)"/>
    <!-- Green overlay -->
    <path d="M20,20 L20,180 M20,100 L120,20 M20,100 L120,180" 
          stroke="#00ff00" 
          stroke-width="25" 
          fill="none"
          opacity="0.8"/>
  </g>

  <!-- Main "S" letter - Bold white base -->
  <g transform="translate(220,40)">
    <path d="M120,20 C60,20 20,40 20,80 C20,120 120,140 120,180 C120,220 80,240 20,240" 
          stroke="#ffffff" 
          stroke-width="30" 
          fill="none"
          filter="url(#glitch)"/>
    <!-- Green overlay -->
    <path d="M120,20 C60,20 20,40 20,80 C20,120 120,140 120,180 C120,220 80,240 20,240" 
          stroke="#00ff00" 
          stroke-width="25" 
          fill="none"
          opacity="0.8"/>
  </g>

  <!-- Shine overlay -->
  <rect width="400" height="300" fill="url(#shine)" opacity="0.3"/>

  <!-- Glitch artifacts -->
  <g opacity="0.5">
    <rect x="50" y="80" width="60" height="8" fill="#ffffff"/>
    <rect x="240" y="130" width="50" height="6" fill="#00ff00"/>
    <rect x="150" y="180" width="70" height="7" fill="#ffffff"/>
  </g>
</svg>